<svg version="1.1" id="Layer_1" xmlns="http://www.w3.org/2000/svg" xmlns:xlink="http://www.w3.org/1999/xlink" x="0px" y="0px"
	 width="100%" viewBox="0 0 1262 153" enable-background="new 0 0 1262 153" xml:space="preserve">
<path fill="#FEFEFE" opacity="1.000000" stroke="none" 
	d="
M935.000000,154.000000 
	C623.333313,154.000000 312.166656,154.000000 1.000000,154.000000 
	C1.000000,103.000000 1.000000,52.000000 1.000000,1.000000 
	C421.666656,1.000000 842.333313,1.000000 1263.000000,1.000000 
	C1263.000000,52.000000 1263.000000,103.000000 1263.000000,154.000000 
	C1153.833374,154.000000 1044.666626,154.000000 935.000000,154.000000 
M286.902557,38.083920 
	C286.744232,29.593723 286.499634,21.103876 286.465179,12.613175 
	C286.448792,8.570896 285.132782,6.744688 280.665405,6.739694 
	C259.022339,6.715499 237.377243,6.179944 215.739807,6.428946 
	C213.095032,6.459382 209.670746,9.622252 208.099716,12.231726 
	C206.516068,14.862152 206.507843,18.596352 206.325958,21.875599 
	C206.105392,25.852718 206.480148,29.859678 206.494003,33.854084 
	C206.503418,36.570320 205.445755,38.084133 202.302734,38.050617 
	C190.182541,37.921375 178.060150,37.998177 165.110260,37.998177 
	C165.110260,26.757082 165.110260,16.857023 165.110260,6.197704 
	C142.454102,6.197704 120.638290,6.209977 98.822495,6.190949 
	C91.335251,6.184419 88.383522,8.736402 87.791786,16.337597 
	C87.280319,22.907578 87.074875,29.501379 86.739624,35.978867 
	C80.655754,35.978867 75.027557,35.978867 69.051216,35.978867 
	C68.935951,32.136662 69.605705,27.308811 64.160629,27.234985 
	C46.564522,26.996403 28.963152,27.145975 12.444757,27.145975 
	C10.780442,29.557327 8.833024,31.596468 7.892037,34.025494 
	C7.294478,35.568001 7.513412,38.332069 8.550332,39.429955 
	C11.467237,42.518353 12.632661,44.718010 8.499116,47.874561 
	C7.401695,48.712601 7.175733,52.844833 8.187268,53.911339 
	C12.140831,58.079746 12.335497,58.803413 8.133091,62.934273 
	C6.131113,64.902168 5.468869,67.765404 8.401062,68.881630 
	C11.669523,70.125870 11.348075,72.397659 10.892099,74.436905 
	C10.562820,75.909523 8.799787,77.061546 6.897791,79.253731 
	C7.024182,79.715790 6.957397,81.903229 8.014515,82.906853 
	C12.146174,86.829437 12.052673,87.473419 8.036355,92.049561 
	C7.039067,93.185852 7.126747,96.842468 8.176571,97.928696 
	C12.156245,102.046326 12.328602,102.794167 8.128124,106.940331 
	C6.133934,108.908752 5.864183,110.948425 8.282247,113.129807 
	C9.526458,114.252235 10.763681,116.024071 10.905761,117.601387 
	C11.272655,121.674530 11.028671,125.802704 11.028671,129.669891 
	C22.567852,129.669891 33.472904,129.669891 44.533714,129.669891 
	C44.844315,126.318840 45.113884,123.410515 45.432777,119.969994 
	C50.876297,119.969994 56.018513,120.138870 61.144733,119.924744 
	C66.804276,119.688347 68.570107,117.940788 68.851402,112.277214 
	C69.107307,107.124908 68.855194,101.948959 69.040390,96.791092 
	C69.229301,91.529495 69.678215,86.277245 70.947556,80.958954 
	C75.320724,80.921402 79.693886,80.883850 84.907059,81.011177 
	C85.635262,81.695679 86.945290,82.342499 86.992493,83.071114 
	C87.215057,86.506721 87.091667,89.964745 87.091667,93.951019 
	C82.270294,93.951019 78.362816,93.951019 74.455338,93.951019 
	C74.452255,94.358147 74.449165,94.765282 74.446083,95.172409 
	C78.600555,95.172409 82.755020,95.172409 87.542038,95.172409 
	C85.924965,100.103539 89.330658,105.150337 85.224205,108.325500 
	C85.865868,110.943138 86.764336,113.232513 86.931290,115.574043 
	C87.285889,120.547211 86.948982,125.580406 87.472260,130.528000 
	C88.061646,136.100754 90.786041,138.178345 96.349449,138.164688 
	C114.992912,138.118942 133.636536,138.089203 152.279633,137.975342 
	C156.398376,137.950180 160.515167,137.604858 165.598801,137.360535 
	C165.598801,122.886971 165.598801,108.924400 166.510910,94.532196 
	C176.674606,94.367691 186.838318,94.203194 197.906250,94.136986 
	C200.833557,94.136986 203.760849,94.136986 207.598953,94.136986 
	C206.730286,99.307236 206.009552,103.597000 205.227432,108.252113 
	C205.546280,109.454643 206.456635,111.534744 206.591629,113.664017 
	C206.927521,118.961517 206.516434,124.329483 207.157196,129.577347 
	C207.685013,133.900238 210.242599,137.995422 214.946686,138.029404 
	C237.271240,138.190765 259.599182,137.892151 281.925812,137.740891 
	C284.975403,137.720230 286.256104,136.192352 286.284790,133.074890 
	C286.390503,121.583496 286.705719,110.094215 286.866547,98.603081 
	C286.951874,92.506126 286.881683,86.406990 286.881683,80.385986 
	C289.811584,80.385986 292.076019,80.385986 294.838013,80.385986 
	C294.838013,90.083099 294.838013,99.534714 294.838013,109.508133 
	C299.490509,109.508133 303.476318,109.555542 307.460754,109.500984 
	C363.607910,108.732193 419.755310,107.980728 475.901764,107.163109 
	C565.366028,105.860313 654.828003,104.391922 744.293945,103.217140 
	C824.935974,102.158218 905.581665,101.383018 986.226624,100.559669 
	C990.023071,100.520905 993.888550,100.917381 997.617371,101.645912 
	C1016.091614,105.255287 1032.876465,113.202370 1049.385498,121.910896 
	C1051.643188,123.101807 1054.707764,123.454315 1057.298828,123.195267 
	C1065.907104,122.334625 1074.466919,120.994278 1083.051758,119.888481 
	C1086.064941,119.500374 1089.159668,119.045998 1090.171509,123.171928 
	C1091.101807,126.965118 1095.211548,130.290863 1090.367188,134.655533 
	C1085.569580,138.978149 1087.479248,144.879272 1093.811279,146.052109 
	C1096.782593,146.602463 1100.409058,146.789627 1102.966064,145.548950 
	C1105.774170,144.186478 1108.671631,141.359970 1109.749878,138.500183 
	C1111.082031,134.966583 1107.196777,133.245758 1105.056274,130.772125 
	C1102.960938,128.350754 1102.615356,123.954941 1102.602173,120.421631 
	C1102.596924,119.033974 1105.422974,116.691391 1107.225342,116.393837 
	C1119.363281,114.390068 1131.568848,112.790031 1143.764282,111.146622 
	C1145.193359,110.954041 1147.682373,110.817688 1147.996338,111.468117 
	C1149.635986,114.864693 1151.054077,118.455345 1151.835205,122.130280 
	C1152.095459,123.354713 1150.407715,125.170593 1149.318115,126.471100 
	C1146.130737,130.275513 1145.947998,133.413757 1148.976318,136.022003 
	C1154.228882,140.545929 1165.795288,138.454498 1168.366333,132.073074 
	C1169.113892,130.217865 1168.211792,126.045715 1166.774048,125.239540 
	C1159.326538,121.063560 1161.822388,114.621376 1161.562744,108.453514 
	C1175.595947,106.512779 1189.092407,104.626923 1202.598999,102.815262 
	C1203.674072,102.671066 1205.563721,102.696289 1205.808228,103.226662 
	C1207.324219,106.514977 1208.810791,109.898720 1209.566284,113.410210 
	C1209.821899,114.597725 1208.066406,116.369827 1206.980225,117.665352 
	C1203.830688,121.422035 1203.844849,125.111290 1207.178223,127.664551 
	C1212.434937,131.690979 1222.405029,129.870285 1225.868530,124.229988 
	C1227.809937,121.068588 1227.449341,118.233673 1224.541138,115.822166 
	C1218.587524,110.885399 1217.724976,107.527962 1220.521973,100.349930 
	C1229.262085,98.912735 1237.985718,97.617722 1246.651978,96.013359 
	C1255.041016,94.460358 1258.798096,87.326637 1254.613403,79.981651 
	C1252.032104,75.450920 1248.561646,71.119270 1244.600830,67.741364 
	C1234.016357,58.714649 1221.475220,53.541351 1207.819580,51.022572 
	C1203.078369,50.148071 1198.280884,49.435596 1193.663574,48.110489 
	C1192.057861,47.649658 1190.249268,45.797089 1189.687988,44.179497 
	C1187.823608,38.806400 1181.930176,34.429035 1175.887085,34.554802 
	C1170.686768,34.663029 1167.928833,37.327099 1166.188354,44.138458 
	C1157.361938,42.763554 1148.521973,41.265621 1139.643066,40.053715 
	C1135.109131,39.434872 1130.344971,39.853523 1130.055542,33.125446 
	C1129.986328,31.516628 1128.097046,29.626389 1126.574463,28.502991 
	C1120.410034,23.954643 1109.993896,23.646812 1107.132568,34.841167 
	C1098.113281,33.392956 1089.076050,32.006481 1080.065186,30.466049 
	C1075.946777,29.761980 1071.232544,29.780020 1071.174438,23.486055 
	C1071.162231,22.172474 1069.518433,20.641214 1068.290649,19.610193 
	C1061.309204,13.747744 1051.851196,16.450193 1048.117310,25.425339 
	C1041.906616,24.577847 1035.567993,24.094124 1029.421143,22.740326 
	C1025.311401,21.835190 1022.473145,22.760536 1019.688049,25.654970 
	C1005.933655,39.949497 989.146729,45.625889 969.307983,45.171017 
	C931.503601,44.304222 893.674561,44.577400 855.858337,44.149864 
	C771.210693,43.192886 686.564087,42.138096 601.918152,41.043526 
	C534.433472,40.170868 466.952454,38.920883 399.465515,38.346382 
	C363.037323,38.036282 326.600037,38.791950 289.410919,39.025906 
	C288.654144,39.015137 287.897339,39.004364 286.902557,38.083920 
z"/>
<path fill="#010101" opacity="1.000000" stroke="none" 
	d="
M165.598801,94.961830 
	C165.598801,108.924400 165.598801,122.886971 165.598801,137.360535 
	C160.515167,137.604858 156.398376,137.950180 152.279633,137.975342 
	C133.636536,138.089203 114.992912,138.118942 96.349449,138.164688 
	C90.786041,138.178345 88.061646,136.100754 87.472260,130.528000 
	C86.948982,125.580406 87.285889,120.547211 86.931290,115.574043 
	C86.764336,113.232513 85.865868,110.943138 85.224205,108.325500 
	C89.330658,105.150337 85.924965,100.103539 87.542038,95.172409 
	C82.755020,95.172409 78.600555,95.172409 74.446083,95.172409 
	C74.449165,94.765282 74.452255,94.358147 74.455338,93.951019 
	C78.362816,93.951019 82.270294,93.951019 87.091667,93.951019 
	C87.091667,89.964745 87.215057,86.506721 86.992493,83.071114 
	C86.945290,82.342499 85.635262,81.695679 84.490868,80.662537 
	C84.079361,79.960876 84.084045,79.607849 84.395844,79.217354 
	C85.650917,78.501724 87.411903,77.820145 87.409065,77.145988 
	C87.395256,73.864166 86.909599,70.584335 86.569473,67.082542 
	C82.363693,66.741592 78.352921,66.416458 74.342155,66.091324 
	C74.356377,65.687721 74.370590,65.284126 74.384811,64.880524 
	C78.372940,64.880524 82.361061,64.880524 86.700500,64.880524 
	C86.700500,60.343693 86.700500,56.448418 86.700500,52.401741 
	C80.856216,52.401741 75.120132,52.401741 69.163483,52.401741 
	C69.163483,56.757137 69.163483,60.877117 69.090042,65.328735 
	C69.065567,66.107887 69.114532,66.555405 69.085297,67.455574 
	C69.037888,71.561531 69.068680,75.214844 69.159851,79.158981 
	C69.484589,79.973511 69.748947,80.497200 70.013306,81.020897 
	C69.678215,86.277245 69.229301,91.529495 69.040390,96.791092 
	C68.855194,101.948959 69.107307,107.124908 68.851402,112.277214 
	C68.570107,117.940788 66.804276,119.688347 61.144733,119.924744 
	C56.018513,120.138870 50.876297,119.969994 45.432777,119.969994 
	C45.113884,123.410515 44.844315,126.318840 44.533714,129.669891 
	C33.472904,129.669891 22.567852,129.669891 11.028671,129.669891 
	C11.028671,125.802704 11.272655,121.674530 10.905761,117.601387 
	C10.763681,116.024071 9.526458,114.252235 8.282247,113.129807 
	C5.864183,110.948425 6.133934,108.908752 8.128124,106.940331 
	C12.328602,102.794167 12.156245,102.046326 8.176571,97.928696 
	C7.126747,96.842468 7.039067,93.185852 8.036355,92.049561 
	C12.052673,87.473419 12.146174,86.829437 8.014515,82.906853 
	C6.957397,81.903229 7.024182,79.715790 6.897791,79.253731 
	C8.799787,77.061546 10.562820,75.909523 10.892099,74.436905 
	C11.348075,72.397659 11.669523,70.125870 8.401062,68.881630 
	C5.468869,67.765404 6.131113,64.902168 8.133091,62.934273 
	C12.335497,58.803413 12.140831,58.079746 8.187268,53.911339 
	C7.175733,52.844833 7.401695,48.712601 8.499116,47.874561 
	C12.632661,44.718010 11.467237,42.518353 8.550332,39.429955 
	C7.513412,38.332069 7.294478,35.568001 7.892037,34.025494 
	C8.833024,31.596468 10.780442,29.557327 12.444757,27.145975 
	C28.963152,27.145975 46.564522,26.996403 64.160629,27.234985 
	C69.605705,27.308811 68.935951,32.136662 69.051216,35.978867 
	C75.027557,35.978867 80.655754,35.978867 86.739624,35.978867 
	C87.074875,29.501379 87.280319,22.907578 87.791786,16.337597 
	C88.383522,8.736402 91.335251,6.184419 98.822495,6.190949 
	C120.638290,6.209977 142.454102,6.197704 165.110260,6.197704 
	C165.110260,16.857023 165.110260,26.757082 165.110260,37.998177 
	C178.060150,37.998177 190.182541,37.921375 202.302734,38.050617 
	C205.445755,38.084133 206.503418,36.570320 206.494003,33.854084 
	C206.480148,29.859678 206.105392,25.852718 206.325958,21.875599 
	C206.507843,18.596352 206.516068,14.862152 208.099716,12.231726 
	C209.670746,9.622252 213.095032,6.459382 215.739807,6.428946 
	C237.377243,6.179944 259.022339,6.715499 280.665405,6.739694 
	C285.132782,6.744688 286.448792,8.570896 286.465179,12.613175 
	C286.499634,21.103876 286.744232,29.593723 286.940704,39.000587 
	C286.978851,43.969353 286.978851,48.021454 286.978851,51.845448 
	C289.917358,51.845448 292.312897,51.845448 294.777527,51.845448 
	C294.739380,46.793934 295.233276,41.917561 290.166870,39.066792 
	C326.600037,38.791950 363.037323,38.036282 399.465515,38.346382 
	C466.952454,38.920883 534.433472,40.170868 601.918152,41.043526 
	C686.564087,42.138096 771.210693,43.192886 855.858337,44.149864 
	C893.674561,44.577400 931.503601,44.304222 969.307983,45.171017 
	C989.146729,45.625889 1005.933655,39.949497 1019.688049,25.654970 
	C1022.473145,22.760536 1025.311401,21.835190 1029.421143,22.740326 
	C1035.567993,24.094124 1041.906616,24.577847 1048.117310,25.425339 
	C1051.851196,16.450193 1061.309204,13.747744 1068.290649,19.610193 
	C1069.518433,20.641214 1071.162231,22.172474 1071.174438,23.486055 
	C1071.232544,29.780020 1075.946777,29.761980 1080.065186,30.466049 
	C1089.076050,32.006481 1098.113281,33.392956 1107.132568,34.841167 
	C1109.993896,23.646812 1120.410034,23.954643 1126.574463,28.502991 
	C1128.097046,29.626389 1129.986328,31.516628 1130.055542,33.125446 
	C1130.344971,39.853523 1135.109131,39.434872 1139.643066,40.053715 
	C1148.521973,41.265621 1157.361938,42.763554 1166.188354,44.138458 
	C1167.928833,37.327099 1170.686768,34.663029 1175.887085,34.554802 
	C1181.930176,34.429035 1187.823608,38.806400 1189.687988,44.179497 
	C1190.249268,45.797089 1192.057861,47.649658 1193.663574,48.110489 
	C1198.280884,49.435596 1203.078369,50.148071 1207.819580,51.022572 
	C1221.475220,53.541351 1234.016357,58.714649 1244.600830,67.741364 
	C1248.561646,71.119270 1252.032104,75.450920 1254.613403,79.981651 
	C1258.798096,87.326637 1255.041016,94.460358 1246.651978,96.013359 
	C1237.985718,97.617722 1229.262085,98.912735 1220.521973,100.349930 
	C1217.724976,107.527962 1218.587524,110.885399 1224.541138,115.822166 
	C1227.449341,118.233673 1227.809937,121.068588 1225.868530,124.229988 
	C1222.405029,129.870285 1212.434937,131.690979 1207.178223,127.664551 
	C1203.844849,125.111290 1203.830688,121.422035 1206.980225,117.665352 
	C1208.066406,116.369827 1209.821899,114.597725 1209.566284,113.410210 
	C1208.810791,109.898720 1207.324219,106.514977 1205.808228,103.226662 
	C1205.563721,102.696289 1203.674072,102.671066 1202.598999,102.815262 
	C1189.092407,104.626923 1175.595947,106.512779 1161.562744,108.453514 
	C1161.822388,114.621376 1159.326538,121.063560 1166.774048,125.239540 
	C1168.211792,126.045715 1169.113892,130.217865 1168.366333,132.073074 
	C1165.795288,138.454498 1154.228882,140.545929 1148.976318,136.022003 
	C1145.947998,133.413757 1146.130737,130.275513 1149.318115,126.471100 
	C1150.407715,125.170593 1152.095459,123.354713 1151.835205,122.130280 
	C1151.054077,118.455345 1149.635986,114.864693 1147.996338,111.468117 
	C1147.682373,110.817688 1145.193359,110.954041 1143.764282,111.146622 
	C1131.568848,112.790031 1119.363281,114.390068 1107.225342,116.393837 
	C1105.422974,116.691391 1102.596924,119.033974 1102.602173,120.421631 
	C1102.615356,123.954941 1102.960938,128.350754 1105.056274,130.772125 
	C1107.196777,133.245758 1111.082031,134.966583 1109.749878,138.500183 
	C1108.671631,141.359970 1105.774170,144.186478 1102.966064,145.548950 
	C1100.409058,146.789627 1096.782593,146.602463 1093.811279,146.052109 
	C1087.479248,144.879272 1085.569580,138.978149 1090.367188,134.655533 
	C1095.211548,130.290863 1091.101807,126.965118 1090.171509,123.171928 
	C1089.159668,119.045998 1086.064941,119.500374 1083.051758,119.888481 
	C1074.466919,120.994278 1065.907104,122.334625 1057.298828,123.195267 
	C1054.707764,123.454315 1051.643188,123.101807 1049.385498,121.910896 
	C1032.876465,113.202370 1016.091614,105.255287 997.617371,101.645912 
	C993.888550,100.917381 990.023071,100.520905 986.226624,100.559669 
	C905.581665,101.383018 824.935974,102.158218 744.293945,103.217140 
	C654.828003,104.391922 565.366028,105.860313 475.901764,107.163109 
	C419.755310,107.980728 363.607910,108.732193 307.460754,109.500984 
	C303.476318,109.555542 299.490509,109.508133 294.838013,109.508133 
	C294.838013,99.534714 294.838013,90.083099 294.838013,80.385986 
	C292.076019,80.385986 289.811584,80.385986 286.881683,80.385986 
	C286.881683,86.406990 286.951874,92.506126 286.866547,98.603081 
	C286.705719,110.094215 286.390503,121.583496 286.284790,133.074890 
	C286.256104,136.192352 284.975403,137.720230 281.925812,137.740891 
	C259.599182,137.892151 237.271240,138.190765 214.946686,138.029404 
	C210.242599,137.995422 207.685013,133.900238 207.157196,129.577347 
	C206.516434,124.329483 206.927521,118.961517 206.591629,113.664017 
	C206.456635,111.534744 205.546280,109.454643 205.227432,108.252113 
	C206.009552,103.597000 206.730286,99.307236 207.598953,94.136986 
	C203.760849,94.136986 200.833557,94.136986 197.445770,93.855270 
	C196.985306,93.573555 197.065338,93.115044 197.505096,93.073753 
	C207.079239,92.948441 207.079193,92.948441 206.681381,83.902824 
	C206.644791,83.070908 206.609787,82.238914 206.604462,80.968414 
	C206.695877,79.947220 206.756866,79.364571 206.856094,78.338699 
	C206.894333,74.505615 206.894333,71.115738 206.894333,67.539978 
	C204.585236,67.283684 202.819427,67.087692 201.004822,66.618057 
	C201.006760,65.978233 201.057480,65.612038 201.549652,65.214531 
	C203.564636,65.095055 205.138168,65.006889 206.524414,64.929222 
	C206.524414,60.778996 206.524414,57.069092 206.524414,53.526810 
	C192.635635,53.526810 179.133072,53.526810 165.084839,53.526810 
	C165.396072,57.646107 165.676834,61.362228 166.001816,65.426132 
	C166.073059,66.236572 166.100067,66.699234 165.896637,67.507309 
	C165.486755,71.516022 165.307297,75.179329 165.123413,79.211197 
	C165.083878,80.059082 165.048752,80.538414 165.005737,81.474976 
	C165.047272,85.568550 165.096680,89.204880 165.179626,93.125549 
	C165.341690,93.927208 165.470245,94.444519 165.598801,94.961830 
M168.842102,39.149143 
	C167.670715,40.047867 165.662506,40.809887 165.489044,41.871635 
	C165.019089,44.748432 165.327927,47.752460 165.327927,50.790653 
	C179.464798,50.790653 193.129578,50.790653 206.910980,50.790653 
	C206.910980,49.241997 206.926147,48.084698 206.908493,46.927902 
	C206.805908,40.205727 206.479126,39.545696 199.700592,39.330803 
	C189.733658,39.014832 179.751282,39.185612 168.842102,39.149143 
M70.310822,50.096985 
	C75.817802,50.096985 81.324791,50.096985 86.764473,50.096985 
	C86.764473,45.813702 86.764473,42.110855 86.764473,38.037067 
	C84.143448,38.037067 81.848999,38.135384 79.565285,38.020458 
	C68.247734,37.450882 68.246124,37.431213 69.032784,49.013210 
	C69.053680,49.320927 69.285423,49.614319 70.310822,50.096985 
M286.854309,76.371109 
	C287.766541,77.265060 288.847046,79.018394 289.557007,78.879379 
	C291.184753,78.560684 293.565887,77.619370 293.961456,76.390282 
	C294.839111,73.663109 294.684143,70.603600 294.976349,67.392250 
	C292.101440,67.392250 289.713074,67.392250 286.854645,67.392250 
	C286.854645,70.191254 286.854645,72.803024 286.854309,76.371109 
M286.860870,59.690334 
	C286.860870,61.443249 286.860870,63.196159 286.860870,64.860428 
	C289.806274,64.860428 292.181915,64.860428 294.620514,64.860428 
	C294.620514,61.306263 294.620514,58.080559 294.620514,54.424587 
	C292.070587,54.161919 289.701599,53.917889 286.860901,53.625263 
	C286.860901,55.570156 286.860901,57.177982 286.860870,59.690334 
z"/>
<path fill="#F5F5F5" opacity="1.000000" stroke="none" 
	d="
M289.788879,39.046349 
	C295.233276,41.917561 294.739380,46.793934 294.777527,51.845448 
	C292.312897,51.845448 289.917358,51.845448 286.978851,51.845448 
	C286.978851,48.021454 286.978851,43.969353 287.059692,39.455421 
	C287.897339,39.004364 288.654144,39.015137 289.788879,39.046349 
z"/>
<path fill="#616161" opacity="1.000000" stroke="none" 
	d="
M197.065338,93.115051 
	C197.065338,93.115044 196.985306,93.573555 196.993652,93.806122 
	C186.838318,94.203194 176.674606,94.367691 166.054855,94.747009 
	C165.470245,94.444519 165.341690,93.927208 165.638306,93.151108 
	C176.397415,92.966568 186.731384,93.040810 197.065338,93.115051 
z"/>
<path fill="#4F4F4F" opacity="1.000000" stroke="none" 
	d="
M70.480431,80.989929 
	C69.748947,80.497200 69.484589,79.973511 69.618332,79.202805 
	C74.707214,79.055466 79.397972,79.155144 84.088737,79.254822 
	C84.084045,79.607849 84.079361,79.960876 84.070862,80.580109 
	C79.693886,80.883850 75.320724,80.921402 70.480431,80.989929 
z"/>
<path fill="#F9F9F9" opacity="1.000000" stroke="none" 
	d="
M165.957596,65.078346 
	C165.676834,61.362228 165.396072,57.646107 165.084839,53.526810 
	C179.133072,53.526810 192.635635,53.526810 206.524414,53.526810 
	C206.524414,57.069092 206.524414,60.778996 206.524414,64.929222 
	C205.138168,65.006889 203.564636,65.095055 201.088531,65.089546 
	C188.776520,65.023369 177.367050,65.050858 165.957596,65.078346 
z"/>
<path fill="#FBFBFB" opacity="1.000000" stroke="none" 
	d="
M201.053619,66.891693 
	C202.819427,67.087692 204.585236,67.283684 206.894333,67.539978 
	C206.894333,71.115738 206.894333,74.505615 206.401154,78.385765 
	C192.314590,78.864906 178.721222,78.853775 165.127838,78.842636 
	C165.307297,75.179329 165.486755,71.516022 166.356964,67.467545 
	C178.383011,67.018822 189.718307,66.955261 201.053619,66.891693 
z"/>
<path fill="#FCFCFC" opacity="1.000000" stroke="none" 
	d="
M197.505096,93.073761 
	C186.731384,93.040810 176.397415,92.966568 165.604767,92.866776 
	C165.096680,89.204880 165.047272,85.568550 165.420807,81.233337 
	C179.420517,80.825294 192.997284,81.116127 206.574066,81.406952 
	C206.609787,82.238914 206.644791,83.070908 206.681381,83.902824 
	C207.079193,92.948441 207.079239,92.948441 197.505096,93.073761 
z"/>
<path fill="#F7F7F7" opacity="1.000000" stroke="none" 
	d="
M169.308792,39.149086 
	C179.751282,39.185612 189.733658,39.014832 199.700592,39.330803 
	C206.479126,39.545696 206.805908,40.205727 206.908493,46.927902 
	C206.926147,48.084698 206.910980,49.241997 206.910980,50.790653 
	C193.129578,50.790653 179.464798,50.790653 165.327927,50.790653 
	C165.327927,47.752460 165.019089,44.748432 165.489044,41.871635 
	C165.662506,40.809887 167.670715,40.047867 169.308792,39.149086 
z"/>
<path fill="#FBFBFB" opacity="1.000000" stroke="none" 
	d="
M84.395844,79.217354 
	C79.397972,79.155144 74.707214,79.055466 69.557961,78.911972 
	C69.068680,75.214844 69.037888,71.561531 69.442337,67.454071 
	C70.791565,66.738953 71.705551,66.477966 72.619530,66.216988 
	C72.572151,65.931625 72.524780,65.646263 72.477402,65.360901 
	C71.372765,65.239632 70.268120,65.118362 69.163483,64.997101 
	C69.163483,60.877117 69.163483,56.757137 69.163483,52.401741 
	C75.120132,52.401741 80.856216,52.401741 86.700500,52.401741 
	C86.700500,56.448418 86.700500,60.343693 86.700500,64.880524 
	C82.361061,64.880524 78.372940,64.880524 74.384811,64.880524 
	C74.370590,65.284126 74.356377,65.687721 74.342155,66.091324 
	C78.352921,66.416458 82.363693,66.741592 86.569473,67.082542 
	C86.909599,70.584335 87.395256,73.864166 87.409065,77.145988 
	C87.411903,77.820145 85.650917,78.501724 84.395844,79.217354 
z"/>
<path fill="#F8F8F8" opacity="1.000000" stroke="none" 
	d="
M69.864838,50.005688 
	C69.285423,49.614319 69.053680,49.320927 69.032784,49.013210 
	C68.246124,37.431213 68.247734,37.450882 79.565285,38.020458 
	C81.848999,38.135384 84.143448,38.037067 86.764473,38.037067 
	C86.764473,42.110855 86.764473,45.813702 86.764473,50.096985 
	C81.324791,50.096985 75.817802,50.096985 69.864838,50.005688 
z"/>
<path fill="#F3F3F3" opacity="1.000000" stroke="none" 
	d="
M286.854492,75.892952 
	C286.854645,72.803024 286.854645,70.191254 286.854645,67.392250 
	C289.713074,67.392250 292.101440,67.392250 294.976349,67.392250 
	C294.684143,70.603600 294.839111,73.663109 293.961456,76.390282 
	C293.565887,77.619370 291.184753,78.560684 289.557007,78.879379 
	C288.847046,79.018394 287.766541,77.265060 286.854492,75.892952 
z"/>
<path fill="#F6F6F6" opacity="1.000000" stroke="none" 
	d="
M286.860901,59.238071 
	C286.860901,57.177982 286.860901,55.570156 286.860901,53.625263 
	C289.701599,53.917889 292.070587,54.161919 294.620514,54.424587 
	C294.620514,58.080559 294.620514,61.306263 294.620514,64.860428 
	C292.181915,64.860428 289.806274,64.860428 286.860870,64.860428 
	C286.860870,63.196159 286.860870,61.443249 286.860901,59.238071 
z"/>
<path fill="#575757" opacity="1.000000" stroke="none" 
	d="
M206.604462,80.968414 
	C192.997284,81.116127 179.420517,80.825294 165.428680,80.776100 
	C165.048752,80.538414 165.083878,80.059082 165.123413,79.211197 
	C178.721222,78.853775 192.314590,78.864906 206.362915,78.828979 
	C206.756866,79.364571 206.695877,79.947220 206.604462,80.968414 
z"/>
<path fill="#555555" opacity="1.000000" stroke="none" 
	d="
M201.004822,66.618057 
	C189.718307,66.955261 178.383011,67.018822 166.587387,67.122139 
	C166.100067,66.699234 166.073059,66.236572 166.001816,65.426132 
	C177.367050,65.050858 188.776520,65.023369 200.647095,65.120865 
	C201.057480,65.612038 201.006760,65.978233 201.004822,66.618057 
z"/>
<path fill="#F8F8F8" opacity="1.000000" stroke="none" 
	d="
M69.090042,65.328728 
	C70.268120,65.118362 71.372765,65.239632 72.477402,65.360901 
	C72.524780,65.646263 72.572151,65.931625 72.619530,66.216988 
	C71.705551,66.477966 70.791565,66.738953 69.520538,67.001434 
	C69.114532,66.555405 69.065567,66.107887 69.090042,65.328728 
z"/>
</svg>